<svg width="114" height="40" viewBox="0 0 114 40" fill="none" xmlns="http://www.w3.org/2000/svg">
<rect y="-6.10352e-05" width="63" height="40" rx="4" fill="#121221"/>
<path d="M13.2 14.7679C14.384 14.7679 15.4187 15.0026 16.304 15.4719C17.1893 15.9413 17.872 16.6026 18.352 17.4559C18.8427 18.2986 19.088 19.2746 19.088 20.3839C19.088 21.4826 18.8427 22.4586 18.352 23.3119C17.872 24.1653 17.184 24.8266 16.288 25.2959C15.4027 25.7653 14.3733 25.9999 13.2 25.9999H8.992V14.7679H13.2ZM13.024 23.6319C14.0587 23.6319 14.864 23.3493 15.44 22.7839C16.016 22.2186 16.304 21.4186 16.304 20.3839C16.304 19.3493 16.016 18.5439 15.44 17.9679C14.864 17.3919 14.0587 17.1039 13.024 17.1039H11.728V23.6319H13.024ZM20.073 21.5199C20.073 20.6026 20.2437 19.7973 20.585 19.1039C20.937 18.4106 21.4117 17.8773 22.009 17.5039C22.6063 17.1306 23.273 16.9439 24.009 16.9439C24.6383 16.9439 25.1877 17.0719 25.657 17.3279C26.137 17.5839 26.505 17.9199 26.761 18.3359V17.0719H29.497V25.9999H26.761V24.7359C26.4943 25.1519 26.121 25.4879 25.641 25.7439C25.1717 25.9999 24.6223 26.1279 23.993 26.1279C23.2677 26.1279 22.6063 25.9413 22.009 25.5679C21.4117 25.1839 20.937 24.6453 20.585 23.9519C20.2437 23.2479 20.073 22.4373 20.073 21.5199ZM26.761 21.5359C26.761 20.8533 26.569 20.3146 26.185 19.9199C25.8117 19.5253 25.353 19.3279 24.809 19.3279C24.265 19.3279 23.801 19.5253 23.417 19.9199C23.0437 20.3039 22.857 20.8373 22.857 21.5199C22.857 22.2026 23.0437 22.7466 23.417 23.1519C23.801 23.5466 24.265 23.7439 24.809 23.7439C25.353 23.7439 25.8117 23.5466 26.185 23.1519C26.569 22.7573 26.761 22.2186 26.761 21.5359ZM36.9164 16.9759C37.9617 16.9759 38.7937 17.3173 39.4124 17.9999C40.0417 18.6719 40.3564 19.5999 40.3564 20.7839V25.9999H37.6364V21.1519C37.6364 20.5546 37.4817 20.0906 37.1724 19.7599C36.863 19.4293 36.447 19.2639 35.9244 19.2639C35.4017 19.2639 34.9857 19.4293 34.6764 19.7599C34.367 20.0906 34.2124 20.5546 34.2124 21.1519V25.9999H31.4764V17.0719H34.2124V18.2559C34.4897 17.8613 34.863 17.5519 35.3324 17.3279C35.8017 17.0933 36.3297 16.9759 36.9164 16.9759ZM43.6336 16.1439C43.1536 16.1439 42.759 16.0053 42.4496 15.7279C42.151 15.4399 42.0016 15.0879 42.0016 14.6719C42.0016 14.2453 42.151 13.8933 42.4496 13.6159C42.759 13.3279 43.1536 13.1839 43.6336 13.1839C44.103 13.1839 44.487 13.3279 44.7856 13.6159C45.095 13.8933 45.2496 14.2453 45.2496 14.6719C45.2496 15.0879 45.095 15.4399 44.7856 15.7279C44.487 16.0053 44.103 16.1439 43.6336 16.1439ZM44.9936 17.0719V25.9999H42.2576V17.0719H44.9936ZM55.3924 21.3919C55.3924 21.6479 55.3764 21.9146 55.3444 22.1919H49.1524C49.195 22.7466 49.371 23.1733 49.6804 23.4719C50.0004 23.7599 50.3897 23.9039 50.8484 23.9039C51.531 23.9039 52.0057 23.6159 52.2724 23.0399H55.1844C55.035 23.6266 54.763 24.1546 54.3684 24.6239C53.9844 25.0933 53.499 25.4613 52.9124 25.7279C52.3257 25.9946 51.6697 26.1279 50.9444 26.1279C50.0697 26.1279 49.291 25.9413 48.6084 25.5679C47.9257 25.1946 47.3924 24.6613 47.0084 23.9679C46.6244 23.2746 46.4324 22.4639 46.4324 21.5359C46.4324 20.6079 46.619 19.7973 46.9924 19.1039C47.3764 18.4106 47.9097 17.8773 48.5924 17.5039C49.275 17.1306 50.059 16.9439 50.9444 16.9439C51.8084 16.9439 52.5764 17.1253 53.2484 17.4879C53.9204 17.8506 54.443 18.3679 54.8164 19.0399C55.2004 19.7119 55.3924 20.4959 55.3924 21.3919ZM52.5924 20.6719C52.5924 20.2026 52.4324 19.8293 52.1124 19.5519C51.7924 19.2746 51.3924 19.1359 50.9124 19.1359C50.4537 19.1359 50.0644 19.2693 49.7444 19.5359C49.435 19.8026 49.243 20.1813 49.1684 20.6719H52.5924ZM59.5718 14.1599V25.9999H56.8358V14.1599H59.5718Z" fill="#F8F8F8"/>
<path d="M71.9851 14.7679V22.4159C71.9851 23.5999 71.6491 24.5119 70.9771 25.1519C70.3158 25.7919 69.4198 26.1119 68.2891 26.1119C67.1051 26.1119 66.1558 25.7759 65.4411 25.1039C64.7265 24.4319 64.3691 23.4773 64.3691 22.2399H67.0891C67.0891 22.7093 67.1851 23.0666 67.3771 23.3119C67.5691 23.5466 67.8465 23.6639 68.2091 23.6639C68.5398 23.6639 68.7958 23.5573 68.9771 23.3439C69.1585 23.1306 69.2491 22.8213 69.2491 22.4159V14.7679H71.9851ZM73.6511 21.5199C73.6511 20.6026 73.8218 19.7973 74.1631 19.1039C74.5151 18.4106 74.9898 17.8773 75.5871 17.5039C76.1845 17.1306 76.8511 16.9439 77.5871 16.9439C78.2165 16.9439 78.7658 17.0719 79.2351 17.3279C79.7151 17.5839 80.0831 17.9199 80.3391 18.3359V17.0719H83.0751V25.9999H80.3391V24.7359C80.0725 25.1519 79.6991 25.4879 79.2191 25.7439C78.7498 25.9999 78.2005 26.1279 77.5711 26.1279C76.8458 26.1279 76.1845 25.9413 75.5871 25.5679C74.9898 25.1839 74.5151 24.6453 74.1631 23.9519C73.8218 23.2479 73.6511 22.4373 73.6511 21.5199ZM80.3391 21.5359C80.3391 20.8533 80.1471 20.3146 79.7631 19.9199C79.3898 19.5253 78.9311 19.3279 78.3871 19.3279C77.8431 19.3279 77.3791 19.5253 76.9951 19.9199C76.6218 20.3039 76.4351 20.8373 76.4351 21.5199C76.4351 22.2026 76.6218 22.7466 76.9951 23.1519C77.3791 23.5466 77.8431 23.7439 78.3871 23.7439C78.9311 23.7439 79.3898 23.5466 79.7631 23.1519C80.1471 22.7573 80.3391 22.2186 80.3391 21.5359ZM84.5105 21.5359C84.5105 20.6079 84.6972 19.7973 85.0705 19.1039C85.4545 18.4106 85.9825 17.8773 86.6545 17.5039C87.3372 17.1306 88.1158 16.9439 88.9905 16.9439C90.1105 16.9439 91.0438 17.2373 91.7905 17.8239C92.5478 18.4106 93.0438 19.2373 93.2785 20.3039H90.3665C90.1212 19.6213 89.6465 19.2799 88.9425 19.2799C88.4412 19.2799 88.0412 19.4773 87.7425 19.8719C87.4438 20.2559 87.2945 20.8106 87.2945 21.5359C87.2945 22.2613 87.4438 22.8213 87.7425 23.2159C88.0412 23.5999 88.4412 23.7919 88.9425 23.7919C89.6465 23.7919 90.1212 23.4506 90.3665 22.7679H93.2785C93.0438 23.8133 92.5478 24.6346 91.7905 25.2319C91.0332 25.8293 90.0998 26.1279 88.9905 26.1279C88.1158 26.1279 87.3372 25.9413 86.6545 25.5679C85.9825 25.1946 85.4545 24.6613 85.0705 23.9679C84.6972 23.2746 84.5105 22.4639 84.5105 21.5359ZM98.806 26.1279C97.9313 26.1279 97.142 25.9413 96.438 25.5679C95.7447 25.1946 95.1953 24.6613 94.79 23.9679C94.3953 23.2746 94.198 22.4639 94.198 21.5359C94.198 20.6186 94.4007 19.8133 94.806 19.1199C95.2113 18.4159 95.766 17.8773 96.47 17.5039C97.174 17.1306 97.9633 16.9439 98.838 16.9439C99.7127 16.9439 100.502 17.1306 101.206 17.5039C101.91 17.8773 102.465 18.4159 102.87 19.1199C103.275 19.8133 103.478 20.6186 103.478 21.5359C103.478 22.4533 103.27 23.2639 102.854 23.9679C102.449 24.6613 101.889 25.1946 101.174 25.5679C100.47 25.9413 99.6807 26.1279 98.806 26.1279ZM98.806 23.7599C99.3287 23.7599 99.7713 23.5679 100.134 23.1839C100.507 22.7999 100.694 22.2506 100.694 21.5359C100.694 20.8213 100.513 20.2719 100.15 19.8879C99.798 19.5039 99.3607 19.3119 98.838 19.3119C98.3047 19.3119 97.862 19.5039 97.51 19.8879C97.158 20.2613 96.982 20.8106 96.982 21.5359C96.982 22.2506 97.1527 22.7999 97.494 23.1839C97.846 23.5679 98.2833 23.7599 98.806 23.7599ZM110.37 16.9759C111.415 16.9759 112.247 17.3173 112.866 17.9999C113.495 18.6719 113.81 19.5999 113.81 20.7839V25.9999H111.09V21.1519C111.09 20.5546 110.935 20.0906 110.626 19.7599C110.316 19.4293 109.9 19.2639 109.378 19.2639C108.855 19.2639 108.439 19.4293 108.13 19.7599C107.82 20.0906 107.666 20.5546 107.666 21.1519V25.9999H104.93V17.0719H107.666V18.2559C107.943 17.8613 108.316 17.5519 108.786 17.3279C109.255 17.0933 109.783 16.9759 110.37 16.9759Z" fill="#121221"/>
</svg>
